HIERARCHY
ROOT joint_Root
{
	OFFSET 0.0 0.0 0.0
	CHANNELS 6 Xposition Yposition Zposition Zrotation Xrotation Yrotation 
	JOINT Hips
	{
		OFFSET -17.1583 93.1646 452.98
		CHANNELS 6 Xposition Yposition Zposition Zrotation Xrotation Yrotation 
		JOINT Spine
		{
			OFFSET 15.7357 0.0 0.0
			CHANNELS 6 Xposition Yposition Zposition Zrotation Xrotation Yrotation 
			JOINT Chest
			{
				OFFSET 8.98455 -0.406207 0.0
				CHANNELS 6 Xposition Yposition Zposition Zrotation Xrotation Yrotation 
				JOINT Neck
				{
					OFFSET 16.3773 0.0 0.0
					CHANNELS 6 Xposition Yposition Zposition Zrotation Xrotation Yrotation 
					JOINT Head
					{
						OFFSET 6.45672 0.0 0.0
						CHANNELS 6 Xposition Yposition Zposition Zrotation Xrotation Yrotation 
						End Site
						{
							OFFSET 0.0 0.0 0.0
						}
					}
				}
				JOINT Shoulder_L
				{
					OFFSET 12.9942 -0.242716 4.98039
					CHANNELS 6 Xposition Yposition Zposition Zrotation Xrotation Yrotation 
					JOINT UpperArm_L
					{
						OFFSET 5.34809 0.0 0.0
						CHANNELS 6 Xposition Yposition Zposition Zrotation Xrotation Yrotation 
						JOINT LowerArm_L
						{
							OFFSET 24.3286 1.87007e-05 0.0
							CHANNELS 6 Xposition Yposition Zposition Zrotation Xrotation Yrotation 
							JOINT Hand_L
							{
								OFFSET 22.2916 0.0 0.0
								CHANNELS 6 Xposition Yposition Zposition Zrotation Xrotation Yrotation 
								End Site
								{
									OFFSET 0.0 0.0 0.0
								}
							}
						}
					}
				}
				JOINT Shoulder_R
				{
					OFFSET 12.9945 -0.242716 -4.98039
					CHANNELS 6 Xposition Yposition Zposition Zrotation Xrotation Yrotation 
					JOINT UpperArm_R
					{
						OFFSET -5.34813 0.0 0.0
						CHANNELS 6 Xposition Yposition Zposition Zrotation Xrotation Yrotation 
						JOINT LowerArm_R
						{
							OFFSET -24.3289 0.000322201 0.0
							CHANNELS 6 Xposition Yposition Zposition Zrotation Xrotation Yrotation 
							JOINT Hand_R
							{
								OFFSET -22.2915 -0.000108084 0.0
								CHANNELS 6 Xposition Yposition Zposition Zrotation Xrotation Yrotation 
								End Site
								{
									OFFSET 0.0 0.0 0.0
								}
							}
						}
					}
				}
			}
		}
		JOINT UpperLeg_L
		{
			OFFSET -2.19248 -6.46944 0.0
			CHANNELS 6 Xposition Yposition Zposition Zrotation Xrotation Yrotation 
			JOINT LowerLeg_L
			{
				OFFSET 39.0811 0.0 -1.23785e-05
				CHANNELS 6 Xposition Yposition Zposition Zrotation Xrotation Yrotation 
				JOINT Foot_L
				{
					OFFSET 40.9854 0.0 -1.26872e-05
					CHANNELS 6 Xposition Yposition Zposition Zrotation Xrotation Yrotation 
					JOINT Toes_L
					{
						OFFSET 11.7543 0.0 0.0
						CHANNELS 6 Xposition Yposition Zposition Zrotation Xrotation Yrotation 
						End Site
						{
							OFFSET 0.0 0.0 0.0
						}
					}
				}
			}
		}
		JOINT UpperLeg_R
		{
			OFFSET -2.19251 6.46944 0.0
			CHANNELS 6 Xposition Yposition Zposition Zrotation Xrotation Yrotation 
			JOINT LowerLeg_R
			{
				OFFSET -39.0811 -0.00228153 -0.0401928
				CHANNELS 6 Xposition Yposition Zposition Zrotation Xrotation Yrotation 
				JOINT Foot_R
				{
					OFFSET -40.9854 0.0 0.0
					CHANNELS 6 Xposition Yposition Zposition Zrotation Xrotation Yrotation 
					JOINT Toes_R
					{
						OFFSET -11.7543 0.0 0.0
						CHANNELS 6 Xposition Yposition Zposition Zrotation Xrotation Yrotation 
						End Site
						{
							OFFSET 0.0 0.0 0.0
						}
					}
				}
			}
		}
	}
}
MOTION
Frames:	5
Frame Time:	0.0333333
0.000000 0.000000 0.000000 0.000000 0.000000 -0.000000 1.492410 92.784700 0.848401 86.089300 -3.392650 -0.578988 15.735700 0.000005 -0.000001 91.708200 87.844000 -89.912900 8.984550 -0.406207 -0.000000 -3.452670 -0.047198 3.590160 16.377300 -0.000001 -0.000001 5.645330 3.596830 -1.554610 6.456720 -0.000001 -0.000000 4.495830 4.228080 -4.013250 12.994200 -0.242716 4.980390 -92.855800 8.599800 -71.551200 5.348090 -0.000007 -0.000001 -73.831800 21.607300 3.683830 24.328600 0.000019 0.000005 16.519800 27.886400 -32.379500 22.291600 -0.000001 0.000005 -1.289370 5.090940 5.320960 12.994500 -0.242716 -4.980390 88.376200 5.354610 -73.103000 -5.348130 -0.000001 -0.000004 -71.074900 31.430200 -4.040480 -24.328900 0.000322 -0.000009 2.204790 7.259440 -16.952400 -22.291500 -0.000108 -0.000004 1.894340 5.252260 1.372950 -2.192480 -6.469440 -0.000000 -177.033000 -4.253040 -3.183800 39.081100 -0.000007 -0.000012 0.227422 -0.622729 20.062700 40.985400 -0.000006 -0.000013 4.439240 9.411360 -72.924500 11.754300 -0.000000 0.000003 -0.000482 0.175383 -9.462940 -2.192510 6.469440 -0.000001 -175.876000 6.365740 -178.640000 -39.081100 -0.002282 -0.040193 0.008144 -0.022559 12.033700 -40.985400 0.000008 0.000006 -3.415570 4.732450 -68.310400 -11.754300 -0.000006 -0.000006 -0.011509 0.282252 -5.103020
0.000000 0.000000 0.000000 0.000000 0.000000 -0.000000 1.446910 92.781500 0.829831 86.066700 -3.386370 -0.632351 15.735700 0.000005 -0.000001 92.355500 87.833200 -90.561400 8.984550 -0.406207 -0.000000 -3.433700 0.002761 3.589250 16.377300 -0.000001 -0.000001 5.616370 3.576680 -1.602480 6.456720 -0.000001 -0.000000 4.419130 4.131650 -4.029470 12.994200 -0.242716 4.980390 -92.849400 8.576420 -71.543100 5.348090 -0.000007 -0.000001 -73.652900 20.798000 3.752660 24.328600 0.000019 0.000005 17.023100 27.633800 -33.429200 22.291600 -0.000001 0.000005 -0.648488 5.096550 5.192530 12.994500 -0.242716 -4.980390 88.367800 5.364330 -73.049100 -5.348130 -0.000001 -0.000004 -71.041300 31.528100 -4.060760 -24.328900 0.000322 -0.000009 2.175230 7.146500 -16.985900 -22.291500 -0.000108 -0.000004 1.861650 5.254330 1.318020 -2.192480 -6.469440 -0.000000 -176.981000 -4.321030 -3.265100 39.081100 -0.000007 -0.000012 0.230065 -0.627767 20.127400 40.985400 -0.000006 -0.000013 4.423470 9.464000 -73.004800 11.754300 -0.000000 0.000003 -0.000442 0.174760 -9.488240 -2.192510 6.469440 -0.000001 -175.799000 6.246000 -178.709000 -39.081100 -0.002282 -0.040193 0.008788 -0.025530 12.056800 -40.985400 0.000008 0.000006 -3.409580 4.657570 -68.338800 -11.754300 -0.000006 -0.000006 -0.011310 0.280850 -5.160410
0.000000 0.000000 0.000000 0.000000 0.000000 -0.000000 1.383760 92.767400 0.823277 86.032600 -3.397190 -0.626618 15.735700 0.000005 -0.000001 92.381600 87.793700 -90.574700 8.984550 -0.406207 -0.000000 -3.354730 0.008013 3.614850 16.377300 -0.000001 -0.000001 5.578660 3.536910 -1.660160 6.456720 -0.000001 -0.000000 4.279590 4.087790 -4.153540 12.994200 -0.242716 4.980390 -92.867600 8.591300 -71.462800 5.348090 -0.000007 -0.000001 -73.381800 19.843900 3.806290 24.328600 0.000019 0.000005 17.828200 27.527000 -34.832700 22.291600 -0.000001 0.000005 -0.319822 5.097990 5.159610 12.994500 -0.242716 -4.980390 88.371000 5.355540 -73.054100 -5.348130 -0.000001 -0.000004 -71.027700 31.533000 -4.132710 -24.328900 0.000322 -0.000009 2.181970 7.186940 -16.945600 -22.291500 -0.000108 -0.000004 1.916780 5.255820 1.278510 -2.192480 -6.469440 -0.000000 -176.900000 -4.309900 -3.346990 39.081100 -0.000007 -0.000012 0.232751 -0.629629 20.288000 40.985400 -0.000006 -0.000013 4.384410 9.453700 -73.039700 11.754300 -0.000000 0.000003 -0.000432 0.174605 -9.494540 -2.192510 6.469440 -0.000001 -175.689000 6.208310 -178.735000 -39.081100 -0.002282 -0.040193 0.010209 -0.031994 12.125800 -40.985400 0.000008 0.000006 -3.163170 4.540270 -68.443100 -11.754300 -0.000006 -0.000006 -0.011468 0.281965 -5.114780
0.000000 0.000000 0.000000 0.000000 0.000000 -0.000000 1.313260 92.762100 0.816984 86.041600 -3.363650 -0.651078 15.735700 0.000005 -0.000001 92.394500 87.773100 -90.588400 8.984550 -0.406207 -0.000000 -3.313790 0.011446 3.613320 16.377300 -0.000001 -0.000001 5.560330 3.504340 -1.751980 6.456720 -0.000001 -0.000000 4.196920 4.026290 -4.292310 12.994200 -0.242716 4.980390 -92.877800 8.596250 -71.411500 5.348090 -0.000007 -0.000001 -73.070300 18.764700 3.906390 24.328600 0.000019 0.000005 18.675100 27.123700 -36.551800 22.291600 -0.000001 0.000005 -0.075313 5.096180 5.201120 12.994500 -0.242716 -4.980390 88.367200 5.361030 -73.033400 -5.348130 -0.000001 -0.000004 -70.990100 31.638800 -4.148900 -24.328900 0.000322 -0.000009 2.183480 7.170920 -16.992200 -22.291500 -0.000108 -0.000004 2.024500 5.251730 1.387010 -2.192480 -6.469440 -0.000000 -176.856000 -4.284980 -3.404380 39.081100 -0.000007 -0.000012 0.233282 -0.629104 20.346100 40.985400 -0.000006 -0.000013 4.339710 9.479470 -73.086400 11.754300 -0.000000 0.000003 -0.000261 0.171915 -9.603810 -2.192510 6.469440 -0.000001 -175.632000 6.214090 -178.782000 -39.081100 -0.002282 -0.040193 0.010971 -0.035411 12.168800 -40.985400 0.000008 0.000006 -3.061180 4.482430 -68.492700 -11.754300 -0.000006 -0.000006 -0.011317 0.280899 -5.158420
0.000000 0.000000 0.000000 0.000000 0.000000 -0.000000 1.229650 92.761900 0.802157 86.019000 -3.318200 -0.717675 15.735700 0.000005 -0.000001 92.417900 87.763900 -90.598500 8.984550 -0.406207 -0.000000 -3.295510 0.013048 3.639880 16.377300 -0.000001 -0.000001 5.511820 3.442990 -1.841530 6.456720 -0.000001 -0.000000 4.052330 3.894540 -4.521390 12.994200 -0.242716 4.980390 -92.902900 8.635520 -71.339100 5.348090 -0.000007 -0.000001 -72.666800 17.349100 4.029270 24.328600 0.000019 0.000005 19.702400 26.517300 -38.731900 22.291600 -0.000001 0.000005 -0.250805 5.089780 5.346930 12.994500 -0.242716 -4.980390 88.361500 5.358050 -72.968500 -5.348130 -0.000001 -0.000004 -70.977800 31.606700 -4.191640 -24.328900 0.000322 -0.000009 2.197700 7.215490 -16.997500 -22.291500 -0.000108 -0.000004 1.977500 5.252250 1.373300 -2.192480 -6.469440 -0.000000 -176.771000 -4.300730 -3.510650 39.081100 -0.000007 -0.000012 0.235462 -0.632983 20.405100 40.985400 -0.000006 -0.000013 4.288940 9.537350 -73.130200 11.754300 -0.000000 0.000003 -0.000352 0.173347 -9.545610 -2.192510 6.469440 -0.000001 -175.534000 6.154630 -178.853000 -39.081100 -0.002282 -0.040193 0.010897 -0.035104 12.156700 -40.985400 0.000008 0.000006 -3.092310 4.398490 -68.477900 -11.754300 -0.000006 -0.000006 -0.011751 0.283957 -5.033180
